<?xml version="1.0" standalone="no"?><!DOCTYPE svg PUBLIC "-//W3C//DTD SVG 1.1//EN" "http://www.w3.org/Graphics/SVG/1.1/DTD/svg11.dtd"><svg t="1527498005899" class="icon" style="" viewBox="0 0 1024 1024" version="1.1" xmlns="http://www.w3.org/2000/svg" p-id="1918" xmlns:xlink="http://www.w3.org/1999/xlink" width="128" height="128"><defs><style type="text/css"></style></defs><path d="M512 10.725469C236.524807 10.725469 13.54796 233.702315 13.54796 509.177508c0 275.475193 222.976847 498.45204 498.45204 498.45204 275.475193 0 498.45204-222.976847 498.45204-498.45204C1010.45204 233.702315 787.475193 10.725469 512 10.725469zM539.660419 851.828004 435.792723 851.828004l0-107.819184 104.432194 0L540.224917 851.828004zM562.240353 521.031974c-29.918412 44.595369-44.595369 93.142227-44.595369 145.076075L450.46968 666.108049c-2.257993-92.01323 38.385888-178.381477 123.060639-260.233738 19.757442-29.918412 28.224917-62.094818 25.966924-96.529217-14.676957-49.675854-43.466373-73.384785-85.803749-70.562293l-14.676957 0c-51.933848 2.257993-76.771775 41.208379-74.513782 115.157663L353.940463 353.940463c-2.257993-92.01323 28.224917-149.027563 93.142227-171.042999 10.16097-7.338479 29.918412-12.418964 59.272326-14.676957 64.352811-7.338479 116.851158 25.966924 156.366042 100.480706C687.558986 352.246968 653.689085 436.357222 562.240353 521.031974z" p-id="1919" fill="#d81e06"></path></svg>