<?xml version="1.0" standalone="no"?><!DOCTYPE svg PUBLIC "-//W3C//DTD SVG 1.1//EN" "http://www.w3.org/Graphics/SVG/1.1/DTD/svg11.dtd"><svg t="1524195289387" class="icon" style="" viewBox="0 0 1024 1024" version="1.1" xmlns="http://www.w3.org/2000/svg" p-id="3006" xmlns:xlink="http://www.w3.org/1999/xlink" width="200" height="200"><defs><style type="text/css"></style></defs><path d="M268.748 885.071c-41.618 0-81.87-15.578-113.409-47.129-67.547-67.534-61.887-175.073 13.169-250.129l394.966-394.954c37.311-37.324 88.97-56.463 145.979-53.757 54.092 2.544 106.446 25.333 143.646 62.532 79.475 79.475 83.583 214.817 8.775 289.625l-377.415 377.391c-9.681 9.694-25.408 9.694-35.102 0s-9.694-25.408 0-35.102l377.403-377.391c56.102-56.115 51.995-158.639-8.775-219.422-28.573-28.56-68.987-46.062-110.89-48.035-42.512-1.986-81.2 11.929-108.531 39.26l-394.966 394.954c-55.941 55.941-61.477 131.618-13.169 179.926 22.453 22.453 52.404 34.034 84.266 32.519 33.786-1.564 67.758-17.799 95.66-45.701l342.302-342.276c29.031-29.044 29.031-76.285 0-105.329-32.42-32.383-72.239-15.515-96.542 8.775l-324.738 324.738c-9.681 9.694-25.408 9.694-35.102 0s-9.694-25.408 0-35.102l324.751-324.738c23.484-23.484 52.268-37.919 81.039-40.625 31.651-3.017 62.173 8.304 85.706 31.85 48.383 48.383 48.395 127.137 0 175.532l-342.302 342.276c-39.991 40.004-89.231 60.298-136.72 60.31z" p-id="3007"></path></svg>