<?xml version="1.0" standalone="no"?><!DOCTYPE svg PUBLIC "-//W3C//DTD SVG 1.1//EN" "http://www.w3.org/Graphics/SVG/1.1/DTD/svg11.dtd"><svg t="1523958467102" class="icon" style="" viewBox="0 0 1024 1024" version="1.1" xmlns="http://www.w3.org/2000/svg" p-id="3094" xmlns:xlink="http://www.w3.org/1999/xlink" width="200" height="200"><defs><style type="text/css"></style></defs><path d="M294.31296 385.60768c0 16.28672 13.18912 29.4912 29.48608 29.4912l394.48064 0c16.27648 0 29.48608-13.20448 29.48608-29.4912 0-16.27136-13.2096-29.48608-29.48608-29.48608L323.79904 356.1216C307.50208 356.1216 294.31296 369.33632 294.31296 385.60768z" p-id="3095"></path><path d="M718.27968 471.56224 323.79904 471.56224c-16.29696 0-29.48608 13.21984-29.48608 29.4912 0 16.28672 13.18912 29.48608 29.48608 29.48608l394.48064 0c16.27648 0 29.48608-13.19936 29.48608-29.48608C747.76576 484.78208 734.55616 471.56224 718.27968 471.56224z" p-id="3096"></path><path d="M718.27968 587.008 323.79904 587.008c-16.29696 0-29.48608 13.21472-29.48608 29.48608 0 16.28672 13.18912 29.4912 29.48608 29.4912l394.48064 0c16.27648 0 29.48608-13.20448 29.48608-29.4912C747.76576 600.22272 734.55616 587.008 718.27968 587.008z" p-id="3097"></path><path d="M526.61248 702.45376 323.79904 702.45376c-16.29696 0-29.48608 13.21472-29.48608 29.4912 0 16.2816 13.18912 29.48608 29.48608 29.48608l202.80832 0c16.27648 0 29.48608-13.20448 29.48608-29.48608C556.09344 715.66848 542.88384 702.45376 526.61248 702.45376z" p-id="3098"></path><path d="M627.6864 112.90624 253.19424 112.90624c-24.39168 0-44.23168 19.84-44.23168 44.23168l0 691.67104c0 24.38144 19.84 44.23168 44.23168 44.23168L788.8896 893.04064c24.39168 0 44.23168-19.85024 44.23168-44.23168L833.12128 318.336 627.6864 112.90624zM774.14912 834.06848l-506.2144 0L267.93472 171.88352l333.86496 0 0 68.79232L323.79904 240.67584c-16.29696 0-29.48608 13.21984-29.48608 29.48608 0 16.30208 13.18912 29.48608 29.48608 29.48608l278.00064 0 0 27.26912 172.34944 0L774.14912 834.06848z" p-id="3099"></path></svg>