<?xml version="1.0" standalone="no"?><!DOCTYPE svg PUBLIC "-//W3C//DTD SVG 1.1//EN" "http://www.w3.org/Graphics/SVG/1.1/DTD/svg11.dtd"><svg t="1523954123424" class="icon" style="" viewBox="0 0 1024 1024" version="1.1" xmlns="http://www.w3.org/2000/svg" p-id="2899" xmlns:xlink="http://www.w3.org/1999/xlink" width="200" height="200"><defs><style type="text/css"></style></defs><path d="M512 938.666667C277.333333 938.666667 85.333333 746.666667 85.333333 512S277.333333 85.333333 512 85.333333s426.666667 192 426.666667 426.666667-192 426.666667-426.666667 426.666667z m202.666667-537.6c-8.533333-8.533333-21.333333-8.533333-29.866667 0L452.266667 633.6l-136.533334-136.533333c-8.533333-8.533333-21.333333-8.533333-29.866666 0-8.533333 8.533333-8.533333 21.333333 0 29.866666l151.466666 151.466667c8.533333 8.533333 21.333333 8.533333 29.866667 0l247.466667-247.466667c8.533333-8.533333 8.533333-23.466667 0-29.866666z" p-id="2900" fill="#1afa29"></path></svg>